Coordinates
version=1
nRows=18
nColumns=22
inDegrees=yes

Units are S.I. units (second, meters, Newtons, ...)
If the header above contains a line with 'inDegrees', this indicates whether rotational values are in degrees (yes) or radians (no).

endheader
time	pelvis_tilt	pelvis_list	pelvis_rotation	pelvis_tx	pelvis_ty	pelvis_tz	hip_flexion_r	hip_adduction_r	hip_rotation_r	knee_angle_r	ankle_angle_r	subtalar_angle_r	hip_flexion_l	hip_adduction_l	hip_rotation_l	knee_angle_l	ankle_angle_l	subtalar_angle_l	lumbar_extension	lumbar_bending	lumbar_rotation
      2.54000000	     -0.72172684	     -2.79019448	     16.12064557	     -0.42822001	      0.92822311	      0.31157489	     28.14936823	      1.39376743	      8.83075908	    -15.84656580	      8.88189179	      6.87521404	     -3.64597364	      5.07258756	     15.87091281	    -22.62767074	     18.79669327	    -11.26204213	     -7.77631512	      2.75331979	     -7.79576004
      2.55000000	     -0.73403391	     -2.88828304	     16.40181342	     -0.41843246	      0.92704315	      0.31001953	     28.17654624	      1.63038446	      8.77264288	    -15.90535945	      8.75894005	      6.56210274	     -4.11207586	      4.88063705	     16.04431557	    -22.91149798	     18.83789411	    -11.03625914	     -7.66007935	      2.86631820	     -7.94456502
      2.56000000	     -0.78597806	     -3.03064844	     16.66962367	     -0.40855015	      0.92589049	      0.30846075	     28.28481141	      1.92212722	      8.70133716	    -16.28790245	      8.45374623	      6.12784629	     -4.47143257	      4.66214569	     16.19482110	    -23.29273809	     18.82515382	    -10.80324608	     -7.47739890	      3.02425590	     -8.08323874
      2.57000000	     -0.83857483	     -3.19518454	     16.89324241	     -0.39853630	      0.92485926	      0.30693674	     28.42364491	      2.27031535	      8.66341204	    -16.94618634	      7.96876003	      5.58072660	     -4.77724444	      4.42801898	     16.28960953	    -23.76026835	     18.72744619	    -10.47744471	     -7.28091995	      3.20836821	     -8.17534939
      2.58000000	     -0.88643205	     -3.38105483	     17.08129049	     -0.38839210	      0.92398113	      0.30542694	     28.57323734	      2.66978422	      8.69512313	    -17.81328780	      7.32849154	      4.97007874	     -5.02502266	      4.17966995	     16.32985834	    -24.32684469	     18.53370597	    -10.03920853	     -7.07723702	      3.42272764	     -8.24800179
      2.59000000	     -0.91696965	     -3.60502670	     17.24122787	     -0.37814419	      0.92328959	      0.30388511	     28.70681851	      3.12776957	      8.79895304	    -18.80165008	      6.56601545	      4.39000911	     -5.19673178	      3.90760484	     16.32976618	    -25.03994962	     18.22602531	     -9.47965344	     -6.87721314	      3.69628567	     -8.27931745
      2.60000000	     -0.92591669	     -3.85831282	     17.36984631	     -0.36778928	      0.92280702	      0.30231585	     28.81498450	      3.63431215	      8.95968812	    -19.86022315	      5.76265392	      3.91183134	     -5.28651077	      3.61897955	     16.25938900	    -25.91406023	     17.79237807	     -8.78892022	     -6.68941898	      4.01862079	     -8.27698913
      2.61000000	     -0.90932109	     -4.12781910	     17.47764604	     -0.35735329	      0.92256621	      0.30065771	     28.87436605	      4.16177688	      9.15580979	    -20.92638521	      4.98665774	      3.54140086	     -5.28445974	      3.32741620	     16.10276899	    -26.96781951	     17.18360459	     -7.91431797	     -6.52419451	      4.38472487	     -8.25002129
      2.62000000	     -0.86764925	     -4.39860128	     17.56169595	     -0.34683160	      0.92256689	      0.29890224	     28.87867734	      4.68487388	      9.32701989	    -21.97005353	      4.31511102	      3.30210926	     -5.18423457	      3.04875992	     15.85262297	    -28.21326641	     16.36826783	     -6.82311902	     -6.38363062	      4.77311890	     -8.18171299
      2.63000000	     -0.79947566	     -4.64574798	     17.63056884	     -0.33628245	      0.92279803	      0.29702231	     28.81538924	      5.16289452	      9.43491835	    -22.96776152	      3.78472196	      3.20553853	     -4.96132369	      2.79729136	     15.44006073	    -29.68281715	     15.33187454	     -5.52754940	     -6.28509646	      5.16083189	     -8.09178541
      2.64000000	     -0.71586184	     -4.85530450	     17.68534050	     -0.32572713	      0.92323216	      0.29503582	     28.68301952	      5.57353398	      9.46803153	    -23.89644084	      3.39889232	      3.21736969	     -4.59511098	      2.57526624	     14.83687755	    -31.37851478	     14.03981184	     -4.05037185	     -6.22201839	      5.52300381	     -7.98454404
      2.65000000	     -0.61677343	     -5.01268885	     17.75446902	     -0.31520916	      0.92385976	      0.29288279	     28.46321422	      5.87546475	      9.35135051	    -24.72912023	      3.24708362	      3.29287225	     -4.08476074	      2.39225532	     14.10824023	    -33.29385542	     12.48533382	     -2.24802016	     -6.19867775	      5.84180581	     -7.82235363
      2.66000000	     -0.50940292	     -5.11975062	     17.83834419	     -0.30478911	      0.92464206	      0.29064357	     28.15824507	      6.08443605	      9.15178251	    -25.45298686	      3.24886295	      3.40628311	     -3.40401993	      2.21606951	     13.19078772	    -35.42414045	     10.69894614	     -0.26842121	     -6.21385833	      6.10878683	     -7.65504417
      2.67000000	     -0.40277278	     -5.19045641	     17.94458537	     -0.29451513	      0.92553415	      0.28835788	     27.77812278	      6.21688230	      8.87525215	    -26.05992777	      3.39542802	      3.52967270	     -2.53678299	      2.01468194	     12.10435367	    -37.75135518	      8.75771651	      1.87435226	     -6.25690402	      6.32871697	     -7.46029144
      2.68000000	     -0.28323100	     -5.24860749	     18.09707324	     -0.28444271	      0.92652253	      0.28604117	     27.30602505	      6.30542407	      8.54829282	    -26.53219007	      3.67814677	      3.64990219	     -1.49306073	      1.74343223	     10.90107023	    -40.25003769	      6.77348518	      4.11875855	     -6.33672683	      6.52830787	     -7.25325429
      2.69000000	     -0.16041203	     -5.29499350	     18.28816743	     -0.27459970	      0.92758154	      0.28376315	     26.74434255	      6.36143567	      8.19127853	    -26.84906781	      4.04305100	      3.75640883	     -0.27506620	      1.38132888	      9.57703629	    -42.88102201	      4.87044133	      6.32005995	     -6.44731539	      6.69438354	     -7.02633134
      2.70000000	     -0.05926599	     -5.36337894	     18.50041837	     -0.26503489	      0.92860912	      0.28158041	     26.16599980	      6.42631546	      7.81535035	    -27.06714078	      4.44849966	      3.83414395	      1.14164902	      0.89765750	      8.15991388	    -45.62029694	      3.15670315	      8.23674966	     -6.55456893	      6.85240209	     -6.74041011
      2.71000000	      0.04801680	     -5.45992121	     18.73904202	     -0.25574481	      0.92964093	      0.27949685	     25.53662119	      6.51619800	      7.42680935	    -27.16863368	      4.88003977	      3.89772721	      2.70201925	      0.27553221	      6.69765922	    -48.41856350	      1.72725388	      9.74701183	     -6.68637229	      7.01710802	     -6.40706031
